<?xml version="1.0" standalone="no"?>
<!DOCTYPE svg PUBLIC "-//W3C//DTD SVG 20010904//EN"
 "http://www.w3.org/TR/2001/REC-SVG-20010904/DTD/svg10.dtd">
<svg version="1.0" xmlns="http://www.w3.org/2000/svg"
 width="800.000000pt" height="800.000000pt" viewBox="0 0 800.000000 800.000000"
 preserveAspectRatio="xMidYMid meet">

<g transform="translate(0.000000,800.000000) scale(0.100000,-0.100000)"
fill="#000000" stroke="none">
<path d="M1860 7943 c-267 -43 -485 -155 -671 -343 -184 -187 -295 -414 -329
-673 -7 -57 -10 -1061 -8 -3247 l3 -3165 26 -67 c69 -177 205 -304 389 -363
47 -16 106 -19 409 -23 248 -3 356 -1 364 7 8 8 591 11 2077 11 2293 0 2114
-5 2254 68 97 51 191 146 240 245 76 154 70 -90 72 3007 2 2328 0 2785 -11
2839 -47 214 -220 392 -435 447 -57 14 -269 16 -2119 20 -1131 1 -2072 6
-2091 9 -19 2 -68 9 -108 15 -205 28 -357 124 -425 268 -41 86 -43 184 -7 277
32 83 120 170 220 218 154 73 -34 68 2510 65 2577 -4 2319 5 2505 -83 156 -73
252 -162 318 -291 61 -121 57 82 57 -2840 0 -2851 2 -2733 -46 -2918 -13 -52
-14 -61 -1 -74 26 -26 137 38 232 133 85 85 130 157 162 260 17 58 18 168 18
2790 0 2585 -1 2734 -18 2806 -57 245 -244 462 -476 552 -153 59 -13 56 -2656
55 -1337 0 -2441 -3 -2455 -5z m3440 -2494 c54 -25 99 -77 116 -136 13 -43 15
-121 12 -480 l-3 -428 -28 -47 c-18 -31 -44 -57 -75 -75 l-47 -28 -1100 0
-1100 0 -45 25 c-24 14 -58 45 -75 68 l-30 44 -3 441 c-2 314 0 454 8 482 22
75 77 126 155 146 17 4 514 6 1105 6 963 -2 1079 -4 1110 -18z"/>
</g>
</svg>
