<?xml version="1.0" standalone="no"?>
<!DOCTYPE svg PUBLIC "-//W3C//DTD SVG 20010904//EN"
 "http://www.w3.org/TR/2001/REC-SVG-20010904/DTD/svg10.dtd">
<svg version="1.0" xmlns="http://www.w3.org/2000/svg"
 width="512.000000pt" height="517.000000pt" viewBox="0 0 512.000000 517.000000"
 preserveAspectRatio="xMidYMid meet">

<g transform="translate(0.000000,517.000000) scale(0.100000,-0.100000)"
fill="#000000" stroke="none">
<path d="M2886 5090 c-142 -30 -262 -95 -367 -200 -71 -71 -93 -101 -132 -180
-121 -248 -135 -506 -47 -901 22 -98 40 -189 40 -201 0 -17 -16 -33 -63 -62
-272 -172 -491 -338 -633 -480 -248 -248 -348 -444 -361 -706 -19 -393 161
-778 457 -978 77 -52 241 -129 345 -162 165 -52 335 -73 571 -68 l201 4 16
-85 c42 -220 45 -373 11 -505 -55 -212 -205 -311 -469 -309 -135 0 -196 13
-231 48 -32 32 -30 45 4 45 47 0 168 36 215 63 92 54 167 168 167 252 0 92
-80 205 -181 256 -195 98 -398 71 -540 -70 -88 -89 -108 -181 -73 -348 46
-225 191 -383 407 -444 72 -21 102 -24 247 -23 189 1 272 18 399 80 88 43 209
154 259 237 115 191 145 397 101 697 -11 77 -19 150 -17 161 2 14 21 27 61 44
100 40 169 87 258 175 131 131 192 267 206 456 15 219 -80 453 -249 616 -115
110 -307 198 -468 214 -39 4 -73 12 -75 18 -15 53 -85 540 -78 546 4 4 44 38
88 75 160 136 279 273 398 463 137 218 210 433 223 662 16 265 -92 495 -272
579 -110 52 -263 63 -418 31z m228 -488 c145 -84 38 -424 -218 -691 -65 -68
-132 -121 -151 -121 -18 0 -47 178 -52 325 -10 252 52 422 175 481 77 36 189
39 246 6z m-557 -1619 c46 -237 54 -285 50 -297 -3 -7 -30 -18 -61 -25 -97
-22 -207 -84 -270 -152 -100 -108 -146 -226 -146 -376 0 -174 68 -310 202
-404 99 -69 268 -116 268 -74 0 8 -4 15 -10 15 -21 0 -163 147 -188 195 -38
72 -38 186 -1 265 49 105 161 195 250 202 l34 3 37 -200 c103 -553 121 -656
111 -666 -6 -6 -66 -13 -134 -16 -462 -21 -808 174 -893 505 -49 187 -20 412
71 552 51 78 232 254 341 330 118 83 304 200 318 200 5 0 15 -26 21 -57z m577
-638 c64 -19 101 -44 157 -102 91 -95 124 -185 117 -322 -5 -111 -43 -198
-120 -274 -63 -62 -122 -97 -138 -81 -17 17 -136 753 -127 778 8 20 47 20 111
1z"/>
</g>
</svg>
