<?xml version="1.0" standalone="no"?>
<!DOCTYPE svg PUBLIC "-//W3C//DTD SVG 20010904//EN"
 "http://www.w3.org/TR/2001/REC-SVG-20010904/DTD/svg10.dtd">
<svg version="1.0" xmlns="http://www.w3.org/2000/svg"
 width="860.000000pt" height="901.000000pt" viewBox="0 0 860.000000 901.000000"
 preserveAspectRatio="xMidYMid meet">

<g transform="translate(0.000000,901.000000) scale(0.100000,-0.100000)"
fill="#000000" stroke="none">
<path d="M4085 8803 c-156 -12 -287 -27 -395 -44 -1132 -179 -2145 -825 -2788
-1781 -255 -378 -458 -830 -572 -1273 -65 -250 -111 -542 -114 -715 l-1 -105
32 -3 33 -3 0 -210 0 -209 -40 0 c-48 0 -46 10 -25 -195 78 -767 358 -1485
816 -2091 202 -268 496 -565 774 -783 186 -146 519 -351 743 -457 513 -243
1003 -366 1602 -404 288 -19 678 12 1012 80 1073 218 2015 854 2626 1771 361
543 597 1198 667 1853 20 189 20 216 -4 216 -52 0 -51 -3 -51 221 l0 209 34 0
c19 0 37 4 40 9 9 14 -31 368 -59 516 -74 399 -188 742 -370 1110 -406 820
-1084 1490 -1910 1886 -570 273 -1188 412 -1810 407 -110 -1 -218 -3 -240 -5z
m465 -278 c321 -12 685 -79 1024 -190 126 -41 476 -195 621 -274 119 -64 357
-221 510 -336 608 -457 1115 -1192 1330 -1929 88 -300 140 -552 148 -711 l2
-50 -1305 0 -1304 0 -24 65 c-98 272 -265 485 -504 643 -126 83 -161 101 -297
146 -130 44 -255 63 -411 63 -341 1 -622 -108 -882 -341 -123 -111 -258 -311
-329 -486 l-36 -90 -1294 -3 c-711 -1 -1297 2 -1301 6 -9 9 10 166 42 342 29
166 96 426 131 510 10 25 46 117 79 205 98 256 210 467 405 763 217 329 612
732 938 956 577 398 1113 606 1779 691 130 17 419 33 498 28 25 -1 106 -5 180
-8z m-45 -2715 c235 -34 439 -133 617 -300 110 -103 172 -182 233 -301 93
-180 135 -348 135 -539 0 -234 -69 -454 -208 -664 -87 -131 -262 -285 -412
-361 -299 -151 -682 -166 -981 -38 -330 141 -582 432 -669 775 -120 468 63
955 463 1236 125 88 304 162 452 186 97 17 274 19 370 6z m-1386 -1567 c132
-379 466 -697 846 -808 271 -79 581 -68 835 28 344 130 639 432 753 772 l24
70 1303 3 1303 2 -7 -78 c-22 -265 -124 -670 -250 -992 -238 -606 -651 -1165
-1171 -1584 -356 -288 -812 -532 -1240 -666 -746 -234 -1467 -249 -2203 -46
-277 77 -448 143 -724 283 -446 225 -843 535 -1173 918 -308 357 -505 685
-682 1135 -123 312 -186 571 -239 988 l-5 42 1303 0 1303 0 24 -67z"/>
<path d="M4231 5609 c-270 -31 -529 -187 -670 -403 -150 -231 -202 -471 -152
-711 88 -426 402 -713 834 -765 106 -12 228 -3 342 26 256 66 486 257 601 499
74 156 89 224 88 415 0 138 -4 178 -22 245 -75 273 -264 494 -526 615 -95 44
-185 68 -305 81 -96 10 -87 10 -190 -2z m216 -100 c92 -12 236 -58 301 -96
273 -156 435 -433 435 -743 0 -242 -92 -454 -269 -619 -169 -158 -340 -225
-579 -224 -183 0 -325 42 -468 137 -165 109 -292 286 -349 483 -33 113 -33
333 0 446 117 407 517 673 929 616z"/>
</g>
</svg>
