<?xml version="1.0" standalone="no"?>
<!DOCTYPE svg PUBLIC "-//W3C//DTD SVG 20010904//EN"
 "http://www.w3.org/TR/2001/REC-SVG-20010904/DTD/svg10.dtd">
<svg version="1.0" xmlns="http://www.w3.org/2000/svg"
 width="981.000000pt" height="626.000000pt" viewBox="0 0 981.000000 626.000000"
 preserveAspectRatio="xMidYMid meet">

<g transform="translate(0.000000,626.000000) scale(0.100000,-0.100000)"
fill="#000000" stroke="none">
<path d="M575 6250 c-93 -4 -186 -10 -205 -15 -85 -19 -218 -113 -274 -193
-16 -23 -35 -68 -42 -99 -37 -159 -39 -299 -39 -2873 0 -2712 0 -2683 52
-2790 38 -78 151 -188 236 -230 l68 -33 492 -8 c640 -10 7454 -10 8094 0 l492
8 68 33 c84 41 196 151 236 231 52 105 52 76 52 2854 0 2770 1 2737 -52 2844
-38 79 -152 190 -236 231 l-69 34 -326 7 c-408 9 -8314 8 -8547 -1z m7715
-381 c564 -5 1043 -13 1065 -17 l40 -7 9 -125 c12 -165 12 -5015 0 -5180 l-9
-125 -45 -7 c-122 -19 -2724 -30 -5450 -24 -2860 7 -3450 12 -3470 32 -24 24
-32 985 -26 3104 4 1169 10 2170 14 2225 l7 100 45 8 c129 23 5901 35 7820 16z"/>
<path d="M2475 5470 c-298 -34 -582 -237 -720 -515 -51 -103 -78 -200 -95
-339 -14 -117 -28 -162 -76 -233 -57 -86 -77 -153 -82 -274 -5 -129 7 -176 81
-322 37 -72 68 -118 108 -157 30 -30 79 -95 108 -145 79 -134 121 -192 196
-272 82 -89 194 -175 300 -230 124 -64 166 -73 343 -73 138 0 161 3 230 26
132 44 253 126 384 260 92 94 140 156 209 274 28 48 75 114 105 146 70 75 125
167 166 275 29 75 32 95 32 194 1 128 -15 191 -68 275 -63 99 -76 135 -92 258
-25 202 -84 356 -189 492 -93 121 -251 243 -388 298 -132 53 -379 81 -552 62z
m320 -372 c88 -19 164 -66 266 -168 155 -153 175 -205 185 -470 7 -222 5 -213
68 -249 76 -43 99 -75 92 -128 -8 -63 -50 -137 -97 -175 -71 -57 -89 -80 -131
-168 -58 -122 -97 -179 -185 -270 -95 -100 -202 -173 -293 -201 -67 -20 -71
-20 -122 -4 -103 34 -189 87 -280 173 -103 99 -174 200 -212 303 -32 88 -38
96 -96 136 -87 60 -120 115 -120 203 0 62 18 92 77 126 56 33 63 48 63 132 0
119 20 321 36 370 24 69 81 147 175 238 90 87 142 124 202 143 90 30 259 34
372 9z"/>
<path d="M5110 4700 l0 -190 1660 0 1660 0 0 190 0 190 -1660 0 -1660 0 0
-190z"/>
<path d="M5110 3130 l0 -190 1660 0 1660 0 0 190 0 190 -1660 0 -1660 0 0
-190z"/>
<path d="M1915 2706 c-523 -186 -692 -272 -851 -430 -81 -81 -116 -146 -184
-341 -120 -345 -145 -577 -80 -746 46 -120 177 -256 281 -291 118 -40 221 -43
1529 -43 1329 0 1438 3 1578 47 56 17 76 30 127 82 72 73 127 155 163 239 52
123 34 257 -89 667 -107 353 -183 437 -554 616 -178 85 -313 139 -568 224
l-188 63 -98 -66 c-183 -122 -184 -122 -351 -122 -170 0 -174 2 -349 124 -56
39 -103 71 -104 70 -1 0 -119 -42 -262 -93z m332 -389 c158 -72 258 -97 383
-97 132 0 257 33 418 113 l103 50 57 -17 c301 -93 679 -281 747 -371 30 -38
110 -277 156 -461 37 -151 35 -176 -16 -246 -26 -36 -45 -50 -77 -59 -50 -14
-2220 -15 -2590 -1 -212 8 -218 8 -244 32 -75 70 -73 176 12 470 72 249 131
331 302 418 116 59 290 129 466 187 146 49 135 50 283 -18z"/>
<path d="M5110 1560 l0 -190 1660 0 1660 0 0 190 0 190 -1660 0 -1660 0 0
-190z"/>
</g>
</svg>
